# xmcd
#
# Track frame offsets:
# 150
# 17715
# 33113
# 46166
# 59536
# 73775
# 89527
# 107719
# 120835
# 136566
# 152155
# 165267
# 179851
# 196634
# 212502
# 230140
# 244099
# 258916
# 272719
# 294246
# 307756
#
# Disc length: 4246 seconds
#
#
# Revision: 0
# Processed by: cddbd v1.5.1PL2 Copyright (c) Steve Scherf et al.
# Submitted via: FreeRIP 2.60 
#
DISCID=16109415
DTITLE=Un tributo a México - 
DYEAR=1900
DGENRE=Country
TTITLE0=Los delinqüentes/La bamba
TTITLE1=Bunbury/Aunque no sea conmigo
TTITLE2=José Mercé/El rey
TTITLE3=Miguel bosé/ La media vuelta
TTITLE4=Falete/Se me olvidó otra vez
TTITLE5=Rosana/Si Dios me quita la vida
TTITLE6=La cabra mecánica/ La adelita
TTITLE7=María Dolores Pradera y Carmen París/ Las ciudades
TTITLE8=Quique gonzález/ Contrabando y traición
TTITLE9=María Jiménez/ Tres veces te engañé
TTITLE10=Elefantes/ Sabor a mí
TTITLE11=Los secretos/ volver, volver
TTITLE12=Fábula - La Llorona
TTITLE13=Clara Montes/ Como yo te amé
TTITLE14=Enrique Heredia "negri"/ María bonita
TTITLE15=Belen Arjona - La noche en que te fuiste
TTITLE16=Pasión Vega - Te sigo amando
TTITLE17=Pereza - En el último trago
TTITLE18=Revolver - juan Charrasqueado
TTITLE19=Aute - Amanecí en tus brazos
TTITLE20=Iván Ferreiro - Pa'  todo el año
EXTD=
EXTT0=
EXTT1=
EXTT2=
EXTT3=
EXTT4=
EXTT5=
EXTT6=
EXTT7=
EXTT8=
EXTT9=
EXTT10=
EXTT11=
EXTT12=
EXTT13=
EXTT14=
EXTT15=
EXTT16=
EXTT17=
EXTT18=
EXTT19=
EXTT20=
PLAYORDER=
